<svg version="1.1" xmlns="http://www.w3.org/2000/svg" viewBox="0 0 250 250"><desc>Created with Snap</desc><defs></defs><g transform="matrix(0.033,0,0,0.033,8.4043,116.5957)"><g transform="matrix(22.6414,0,0,22.6414,4871.6245,-877.0888)"><g transform="translate(0,-952.36218)"><path style="" d="m 45.719885,957.36164 3.18651,38.66594 c -0.0104,0.002 -0.0207,0.005 -0.0312,0.007 -0.004,7.7e-4 -0.008,0.002 -0.0117,0.003 -0.0463,0.009 -0.093,0.0154 -0.13911,0.0247 -0.004,7.6e-4 -0.008,0.002 -0.0116,0.003 -0.0493,0.01 -0.0979,0.0214 -0.14692,0.0325 -0.006,9.5e-4 -0.0104,0.003 -0.0156,0.004 -0.2469,0.0566 -0.49069,0.12668 -0.72935,0.21192 -0.0121,0.005 -0.0243,0.009 -0.0364,0.013 -0.0131,0.005 -0.026,0.009 -0.039,0.0143 l -16.53063,-35.06206 -7.4261,4.25388 22.0885,31.88727 c -0.0888,0.0738 -0.17625,0.14988 -0.26131,0.22881 -0.007,0.007 -0.0138,0.013 -0.0208,0.0195 -0.0278,0.026 -0.0546,0.0528 -0.082,0.0793 -0.0108,0.0104 -0.0218,0.0207 -0.0325,0.0312 -0.027,0.0265 -0.054,0.0535 -0.0806,0.0806 -0.12959,0.13168 -0.25391,0.2685 -0.37052,0.40953 l -31.84697,-22.10018 -4.30459,7.3975 35.07899,16.57354 c -0.003,0.01 -0.006,0.016 -0.009,0.025 -0.0102,0.028 -0.0201,0.055 -0.0299,0.083 -0.004,0.012 -0.008,0.023 -0.0116,0.035 -0.01,0.029 -0.0205,0.057 -0.0299,0.086 -0.008,0.023 -0.0149,0.046 -0.0221,0.069 -0.0107,0.034 -0.0211,0.068 -0.0312,0.1014 -0.005,0.015 -0.009,0.029 -0.013,0.044 -0.009,0.032 -0.0187,0.063 -0.0273,0.095 -0.005,0.019 -0.009,0.037 -0.0143,0.056 -0.007,0.023 -0.0123,0.047 -0.0182,0.07 -0.004,0.015 -0.007,0.029 -0.0104,0.044 -0.0341,0.1397 -0.0639,0.2792 -0.0884,0.4199 l -38.65164,-3.1839 0.0299,8.5572 38.61653,-3.2138 c 0.0675,0.4021 0.1727,0.7969 0.31462,1.1792 l -35.06208,16.5293 4.25389,7.4274 31.88726,-22.0898 c 0.25307,0.3044 0.53719,0.5885 0.85027,0.8463 l -22.10152,31.8496 7.3975,4.3046 16.57354,-35.0803 c 0.37654,0.1391 0.76017,0.2403 1.14668,0.3055 l -3.18652,38.6634 8.55848,-0.03 -3.21511,-38.6374 c 0.0264,-0 0.053,-0.01 0.0793,-0.014 0.0321,-0.01 0.0642,-0.012 0.0962,-0.018 0.0335,-0.01 0.0668,-0.014 0.10011,-0.021 0.29999,-0.063 0.59199,-0.1459 0.87496,-0.2496 l 16.57481,35.0816 7.39621,-4.3046 -22.1015,-31.8496 c 0.30851,-0.2541 0.59265,-0.5371 0.84895,-0.8437 l 31.88727,22.0898 4.25388,-7.4274 -35.05427,-16.5268 c 0.14193,-0.3794 0.24892,-0.7761 0.31722,-1.1856 l 38.63343,3.2151 0.0299,-8.55722 -38.66854,3.18522 c -0.0674,-0.3924 -0.17038,-0.773 -0.30551,-1.1376 l 35.06857,-16.56831 -4.30458,-7.3975 -31.84437,22.0989 c -0.0287,-0.0346 -0.0565,-0.0688 -0.0858,-0.1027 -0.10171,-0.11774 -0.20865,-0.23059 -0.31853,-0.34063 -9.4e-4,-9.5e-4 -0.002,-0.003 -0.003,-0.004 -0.0341,-0.0341 -0.0691,-0.068 -0.104,-0.10142 -0.002,-0.002 -0.005,-0.005 -0.007,-0.007 -0.035,-0.0333 -0.071,-0.0663 -0.10661,-0.0988 -0.002,-0.002 -0.004,-0.005 -0.007,-0.007 -0.0357,-0.0325 -0.0714,-0.0633 -0.10791,-0.0949 -0.002,-0.002 -0.004,-0.005 -0.007,-0.007 -0.0335,-0.0291 -0.0686,-0.0575 -0.1027,-0.0858 l 22.08718,-31.88469 -7.42611,-4.25387 -16.52802,35.05687 c -0.37416,-0.13875 -0.76416,-0.24216 -1.16748,-0.30943 l 3.2151,-38.63342 -8.55848,-0.0299 z" fill="#e94b3c" fill-opacity="1" fill-rule="nonzero" stroke="none"></path></g><desc>Created with Snap</desc><defs></defs></g><g><g transform="matrix(1.024,0,0,-1.024,0,0)"><path d="M306 -5Q229 -5 159 21Q90 48 51 90L74 128Q111 89 173 64Q236 40 305 40Q405 40 456 78Q507 116 507 177Q507 224 480 252Q453 280 413 295Q373 310 305 326Q228 345 181 363Q135 381 102 418Q70 456 70 519Q70 570 97 612Q124 655 179 680Q235 705 318 705Q376 705 432 688Q488 671 529 642L510 601Q468 630 417 645Q367 660 318 660Q221 660 171 621Q121 582 121 520Q121 473 148 445Q175 417 215 402Q255 387 324 370Q401 351 447 333Q493 315 525 278Q558 242 558 180Q558 129 530 87Q503 45 446 20Q389 -5 306 -5ZM977 526Q1050 526 1109 492Q1168 458 1201 398Q1235 338 1235 261Q1235 184 1201 123Q1168 63 1109 29Q1050 -4 977 -4Q908 -4 852 28Q796 61 765 119L765 -194L715 -194L715 522L763 522L763 399Q794 459 850 492Q907 526 977 526ZM974 41Q1034 41 1082 69Q1130 97 1157 147Q1185 197 1185 261Q1185 325 1157 375Q1130 425 1082 453Q1034 481 974 481Q914 481 866 453Q819 425 791 375Q764 325 764 261Q764 197 791 147Q819 97 866 69Q914 41 974 41ZM1566 526Q1663 526 1715 476Q1767 427 1767 331L1767 0L1719 0L1719 93Q1694 47 1646 21Q1598 -4 1531 -4Q1444 -4 1393 37Q1343 78 1343 145Q1343 210 1389 250Q1436 291 1538 291L1717 291L1717 333Q1717 406 1677 444Q1638 482 1562 482Q1510 482 1462 464Q1415 446 1382 416L1357 452Q1396 487 1451 506Q1506 526 1566 526ZM1538 37Q1603 37 1648 67Q1694 97 1717 154L1717 252L1539 252Q1462 252 1427 224Q1393 196 1393 147Q1393 96 1431 66Q1469 37 1538 37ZM2021 408Q2045 465 2096 495Q2147 526 2220 526L2220 477L2208 478Q2121 478 2072 423Q2023 369 2023 272L2023 0L1973 0L1973 522L2021 522L2021 408ZM2775 0L2553 279L2417 155L2417 0L2367 0L2367 742L2417 742L2417 217L2751 522L2815 522L2590 311L2837 0L2775 0ZM3087 -4Q3024 -4 2967 15Q2910 34 2878 63L2901 103Q2933 76 2983 58Q3034 40 3089 40Q3168 40 3205 66Q3243 92 3243 138Q3243 171 3222 190Q3202 209 3172 218Q3142 227 3089 237Q3027 248 2989 261Q2951 274 2924 303Q2897 332 2897 383Q2897 445 2948 485Q3000 526 3095 526Q3145 526 3194 512Q3243 498 3274 475L3251 435Q3219 458 3178 470Q3137 482 3094 482Q3021 482 2984 455Q2947 428 2947 384Q2947 349 2968 329Q2989 310 3019 300Q3050 291 3105 280Q3166 269 3203 256Q3241 244 3267 216Q3293 188 3293 139Q3293 74 3239 35Q3185 -4 3087 -4ZM3894 -4Q3820 -4 3760 30Q3701 64 3667 124Q3633 185 3633 261Q3633 337 3667 397Q3701 458 3760 492Q3820 526 3894 526Q3968 526 4027 492Q4087 458 4121 397Q4155 337 4155 261Q4155 185 4121 124Q4087 64 4027 30Q3968 -4 3894 -4ZM3894 41Q3954 41 4001 69Q4049 97 4076 147Q4104 197 4104 261Q4104 325 4076 375Q4049 425 4001 453Q3954 481 3894 481Q3834 481 3786 453Q3739 425 3711 375Q3684 325 3684 261Q3684 197 3711 147Q3739 97 3786 69Q3834 41 3894 41ZM4467 703Q4369 703 4369 598L4369 522L4536 522L4536 479L4370 479L4370 0L4320 0L4320 479L4224 479L4224 522L4320 522L4320 602Q4320 668 4358 707Q4396 746 4465 746Q4495 746 4522 737Q4550 729 4568 712L4548 674Q4516 703 4467 703Z" fill="#2d2926" style=""></path></g></g><g transform="matrix(1,0,0,1,1886.2083,1269.7601)"><g transform="matrix(1.024,0,0,-1.024,0,0)"><path d="M645 0L555 197L149 197L60 0L5 0L327 700L378 700L700 0L645 0ZM169 240L536 240L352 644L169 240ZM968 703Q870 703 870 598L870 522L1037 522L1037 479L871 479L871 0L821 0L821 479L725 479L725 522L821 522L821 602Q821 668 859 707Q897 746 966 746Q996 746 1023 737Q1051 729 1069 712L1049 674Q1017 703 968 703ZM1187 408Q1211 465 1262 495Q1313 526 1386 526L1386 477L1374 478Q1287 478 1238 423Q1189 369 1189 272L1189 0L1139 0L1139 522L1187 522L1187 408ZM1533 0L1533 522L1583 522L1583 0L1533 0ZM1558 649Q1541 649 1529 660Q1517 672 1517 689Q1517 706 1529 718Q1541 730 1558 730Q1575 730 1587 718Q1599 707 1599 690Q1599 673 1587 661Q1575 649 1558 649ZM2001 -4Q1925 -4 1865 30Q1805 64 1771 124Q1737 185 1737 261Q1737 338 1771 398Q1805 459 1865 492Q1925 526 2001 526Q2064 526 2115 501Q2167 477 2199 430L2162 403Q2134 442 2092 461Q2051 481 2001 481Q1940 481 1891 453Q1843 426 1815 376Q1788 326 1788 261Q1788 196 1815 146Q1843 96 1891 68Q1940 41 2001 41Q2051 41 2092 60Q2134 80 2162 119L2199 92Q2167 45 2115 20Q2064 -4 2001 -4ZM2525 526Q2622 526 2674 476Q2726 427 2726 331L2726 0L2678 0L2678 93Q2653 47 2605 21Q2557 -4 2490 -4Q2403 -4 2352 37Q2302 78 2302 145Q2302 210 2348 250Q2395 291 2497 291L2676 291L2676 333Q2676 406 2636 444Q2597 482 2521 482Q2469 482 2421 464Q2374 446 2341 416L2316 452Q2355 487 2410 506Q2465 526 2525 526ZM2497 37Q2562 37 2607 67Q2653 97 2676 154L2676 252L2498 252Q2421 252 2386 224Q2352 196 2352 147Q2352 96 2390 66Q2428 37 2497 37Z" fill="#2d2926" style=""></path></g></g></g></svg>